<?xml version="1.0" standalone="no"?>
<!DOCTYPE svg PUBLIC "-//W3C//DTD SVG 20010904//EN"
 "http://www.w3.org/TR/2001/REC-SVG-20010904/DTD/svg10.dtd">
<svg version="1.0" xmlns="http://www.w3.org/2000/svg"
 width="1280.000000pt" height="917.000000pt" viewBox="0 0 1280.000000 917.000000"
 preserveAspectRatio="xMidYMid meet">
<metadata>
Created by potrace 1.15, written by Peter Selinger 2001-2017
</metadata>
<g transform="translate(0.000000,917.000000) scale(0.100000,-0.100000)"
fill="#000000" stroke="none">
<path d="M9544 7054 c-1164 -892 -1318 -1013 -1484 -1168 -376 -351 -773 -681
-1415 -1176 -159 -123 -339 -269 -400 -325 -143 -131 -211 -188 -315 -262
-540 -388 -1158 -574 -2064 -619 -134 -7 -141 -8 -200 -41 -101 -58 -252 -132
-323 -159 -222 -84 -633 -196 -1111 -304 -376 -85 -606 -158 -867 -277 -296
-134 -406 -232 -449 -398 -20 -75 -20 -141 0 -230 9 -38 16 -95 15 -125 -2
-47 2 -62 27 -95 92 -126 608 -334 1201 -484 108 -28 360 -86 561 -131 201
-44 437 -98 525 -120 306 -74 781 -143 1255 -182 98 -8 333 -13 635 -13 428 0
489 2 565 18 315 68 690 257 993 500 197 159 485 482 902 1012 397 504 686
829 925 1038 231 202 515 400 630 440 110 37 221 14 358 -75 34 -22 65 -38 69
-34 8 8 49 -53 78 -117 53 -117 89 -316 136 -766 59 -566 119 -1406 119 -1660
l0 -151 189 0 190 0 -5 93 c-2 50 -7 119 -10 152 -7 90 -5 145 21 575 31 487
47 618 110 885 46 191 149 498 311 925 84 219 210 450 333 610 111 144 264
401 432 725 133 255 154 303 187 423 24 91 26 111 26 312 0 203 -2 223 -32
365 -30 147 -132 531 -193 730 -74 239 -216 544 -351 751 -94 145 -232 330
-256 343 -15 8 -216 -142 -1318 -985z"/>
</g>
</svg>
